<?xml version="1.0" encoding="UTF-8"?>
<!DOCTYPE svg PUBLIC "-//W3C//DTD SVG 1.1//EN" "http://www.w3.org/Graphics/SVG/1.1/DTD/svg11.dtd">
<svg xmlns="http://www.w3.org/2000/svg" version="1.1" width="350px" height="350px" style="shape-rendering:geometricPrecision; text-rendering:geometricPrecision; image-rendering:optimizeQuality; fill-rule:evenodd; clip-rule:evenodd" xmlns:xlink="http://www.w3.org/1999/xlink">
<g><path style="opacity:1" fill="#000000" d="M 176.5,16.5 C 196.891,16.672 217.225,17.8386 237.5,20C 259.703,23.3721 280.37,30.7054 299.5,42C 303.431,45.989 307.264,50.1557 311,54.5C 321.247,70.3277 329.914,86.9943 337,104.5C 338.985,112.726 340.318,121.059 341,129.5C 341.644,146.663 342.144,163.829 342.5,181C 340.442,212.119 338.942,243.285 338,274.5C 336.427,284.51 334.76,294.51 333,304.5C 331.989,305.337 330.822,305.67 329.5,305.5C 325.909,295.228 322.409,284.895 319,274.5C 319.332,286.824 319.832,299.157 320.5,311.5C 319.167,311.5 317.833,311.5 316.5,311.5C 312.308,298.09 307.808,284.757 303,271.5C 300.657,291.206 295.657,310.206 288,328.5C 286.644,329.38 285.144,329.714 283.5,329.5C 281.061,314.926 279.228,300.259 278,285.5C 276.324,297.225 274.324,308.892 272,320.5C 270.989,321.337 269.822,321.67 268.5,321.5C 268.085,315.026 267.252,308.693 266,302.5C 262.285,308.444 257.118,312.611 250.5,315C 211.404,327.766 171.737,329.766 131.5,321C 117.065,316.578 103.065,311.078 89.5,304.5C 85.159,301.325 81.3257,297.658 78,293.5C 79.0634,305.457 79.8967,317.457 80.5,329.5C 79.5,329.5 78.5,329.5 77.5,329.5C 74.4263,316.114 70.2597,303.114 65,290.5C 64.5001,304.496 64.3334,318.496 64.5,332.5C 63.0222,332.762 61.6888,332.429 60.5,331.5C 52.4757,313.424 45.9757,294.757 41,275.5C 38.5483,287.542 35.8816,299.542 33,311.5C 31.4912,313.919 29.3245,314.919 26.5,314.5C 26.111,302.832 25.611,291.165 25,279.5C 21.5978,289.473 16.7644,298.64 10.5,307C 9.20677,307.49 7.87344,307.657 6.5,307.5C 6.33398,302.156 6.50065,296.823 7,291.5C 11.1085,269.357 13.2751,247.024 13.5,224.5C 11.1878,184.837 11.0211,145.17 13,105.5C 17.2511,85.4386 25.7511,67.4386 38.5,51.5C 46.4979,45.8322 54.8313,40.6656 63.5,36C 100.34,24.1294 138.006,17.6294 176.5,16.5 Z"/></g>
<g><path style="opacity:1" fill="#fefffe" d="M 177.5,19.5 C 197.548,19.8047 217.548,20.9714 237.5,23C 249.244,25.7482 260.911,28.7482 272.5,32C 287.558,36.439 299.725,44.939 309,57.5C 320.956,75.0798 329.956,94.0798 336,114.5C 338.291,136.594 339.458,158.76 339.5,181C 337.463,211.791 335.963,242.624 335,273.5C 333.968,281.708 332.302,289.708 330,297.5C 329.667,296.833 329.333,296.167 329,295.5C 325.755,284.03 322.255,272.697 318.5,261.5C 317.5,261.5 316.5,261.5 315.5,261.5C 315.447,274.897 315.947,288.231 317,301.5C 311.354,288.564 307.188,275.231 304.5,261.5C 309.71,235.439 311.877,209.106 311,182.5C 312.574,164.005 314.074,145.505 315.5,127C 314.869,114.839 314.369,102.672 314,90.5C 313.693,87.1238 311.86,85.7904 308.5,86.5C 309.044,88.5795 309.878,90.5795 311,92.5C 311.385,104.005 311.885,115.505 312.5,127C 309.084,159.076 307.251,191.243 307,223.5C 306.252,234.314 304.585,244.981 302,255.5C 300.989,256.337 299.822,256.67 298.5,256.5C 298.414,260.318 299.081,263.984 300.5,267.5C 298.676,276.119 297.176,284.786 296,293.5C 293.852,303.943 290.519,313.943 286,323.5C 282.997,306.303 281.164,288.97 280.5,271.5C 279.5,271.5 278.5,271.5 277.5,271.5C 275.227,284.136 273.061,296.803 271,309.5C 270.453,305.84 269.953,302.173 269.5,298.5C 271.058,294.284 272.058,289.951 272.5,285.5C 271.5,285.5 270.5,285.5 269.5,285.5C 268.611,260.255 267.611,235.088 266.5,210C 267.536,208.099 268.702,206.265 270,204.5C 271.011,205.337 272.178,205.67 273.5,205.5C 273.5,203.5 273.5,201.5 273.5,199.5C 270.675,199.081 268.509,200.081 267,202.5C 267.463,174.318 265.463,146.318 261,118.5C 260.5,107.172 260.333,95.8382 260.5,84.5C 257.305,84.5131 255.638,86.1798 255.5,89.5C 257.444,113.836 259.944,138.17 263,162.5C 263.667,171.5 263.667,180.5 263,189.5C 246.901,164.613 231.901,138.946 218,112.5C 215.328,106.36 213.495,100.027 212.5,93.5C 211.167,93.5 209.833,93.5 208.5,93.5C 203.502,122.501 198.335,151.501 193,180.5C 192.198,190.852 191.198,201.186 190,211.5C 184.536,193.312 179.536,174.979 175,156.5C 171.853,143.012 170.353,129.345 170.5,115.5C 169.178,115.33 168.011,115.663 167,116.5C 154.888,141.193 146.721,167.193 142.5,194.5C 141.5,194.5 140.5,194.5 139.5,194.5C 138.456,175.465 136.956,156.465 135,137.5C 133.905,122.519 133.405,107.519 133.5,92.5C 132.178,92.33 131.011,92.6634 130,93.5C 122.224,108.782 113.391,123.449 103.5,137.5C 91.5462,159.074 80.3795,181.074 70,203.5C 69.7411,197.82 70.0744,192.154 71,186.5C 75.8286,153.881 80.3286,121.215 84.5,88.5C 83.5,88.5 82.5,88.5 81.5,88.5C 77.4195,120.896 72.9195,153.23 68,185.5C 67.5757,187.515 66.7424,189.349 65.5,191C 65.4676,220.912 68.1342,250.579 73.5,280C 71.2312,281.758 71.0646,283.592 73,285.5C 74.331,293.472 74.9977,301.472 75,309.5C 70.1926,298.577 66.6926,287.244 64.5,275.5C 63.5,275.5 62.5,275.5 61.5,275.5C 61.6666,292.17 61.4999,308.837 61,325.5C 55.5519,312.071 50.5519,298.404 46,284.5C 44.833,279.165 43.6663,273.832 42.5,268.5C 43.0951,265.86 43.4285,263.193 43.5,260.5C 42.1779,260.33 41.0113,260.663 40,261.5C 31.6053,227.831 26.4386,193.664 24.5,159C 24.974,149.813 25.6407,140.646 26.5,131.5C 25.5,131.5 24.5,131.5 23.5,131.5C 21.2013,147.476 21.0346,163.476 23,179.5C 26.2791,209.675 31.4458,239.509 38.5,269C 36.5756,282.387 33.7422,295.553 30,308.5C 28.9209,296.512 28.0876,284.512 27.5,272.5C 25.8333,272.5 24.1667,272.5 22.5,272.5C 20.5629,283.15 16.3962,292.817 10,301.5C 9.83333,299.833 9.66667,298.167 9.5,296.5C 11.1163,282.803 12.9496,269.136 15,255.5C 16.9335,233.836 16.9335,212.169 15,190.5C 14.3333,166.833 14.3333,143.167 15,119.5C 16.9678,95.0735 25.4678,73.2402 40.5,54C 48.8322,48.1651 57.4988,42.8318 66.5,38C 102.733,26.6278 139.733,20.4611 177.5,19.5 Z"/></g>
<g><path style="opacity:1" fill="#fefffe" d="M 129.5,101.5 C 132.207,131.332 134.373,161.332 136,191.5C 128.87,189.79 122.037,187.29 115.5,184C 107.216,179.368 99.216,174.368 91.5,169C 102.577,146.679 115.077,125.179 129,104.5C 129.483,103.552 129.649,102.552 129.5,101.5 Z"/></g>
<g><path style="opacity:1" fill="#fefffe" d="M 210.5,103.5 C 221.103,125.37 232.77,146.703 245.5,167.5C 235.051,172.89 224.385,178.056 213.5,183C 212.016,184.574 210.349,185.907 208.5,187C 204.223,188.805 199.89,190.305 195.5,191.5C 196.127,179.735 197.627,168.068 200,156.5C 203.985,138.9 207.485,121.233 210.5,103.5 Z"/></g>
<g><path style="opacity:1" fill="#fefffe" d="M 242.5,228.5 C 242.5,229.5 242.5,230.5 242.5,231.5C 245.973,230.553 249.14,228.887 252,226.5C 252.49,227.793 252.657,229.127 252.5,230.5C 256.975,229.201 260.475,226.535 263,222.5C 265.805,246.43 266.805,270.43 266,294.5C 263.873,298.589 261.373,302.423 258.5,306C 244.479,313.785 229.479,318.785 213.5,321C 170.956,328.067 130.623,321.733 92.5,302C 85.9044,297.406 80.7378,291.573 77,284.5C 73.3503,262.635 70.8503,240.635 69.5,218.5C 69.8333,215.5 70.1667,212.5 70.5,209.5C 77.2922,197.382 83.6255,185.049 89.5,172.5C 103.369,180.768 117.702,187.935 132.5,194C 133.5,195 134.5,196 135.5,197C 117.141,198.798 98.8075,198.632 80.5,196.5C 80.5,197.833 80.5,199.167 80.5,200.5C 87.8409,200.334 95.1742,200.5 102.5,201C 102.833,201.333 103.167,201.667 103.5,202C 101.391,203.141 99.5578,204.641 98,206.5C 96.1041,226.605 104.604,233.105 123.5,226C 131.256,219.745 132.589,212.245 127.5,203.5C 126.092,202.757 124.759,201.923 123.5,201C 129.467,200.074 135.301,200.574 141,202.5C 142.365,202.156 143.532,201.489 144.5,200.5C 145.736,201.246 147.07,201.579 148.5,201.5C 148.5,200.167 148.5,198.833 148.5,197.5C 147.022,197.762 145.689,197.429 144.5,196.5C 149.234,171.544 156.734,147.544 167,124.5C 171.054,156.712 178.554,188.045 189.5,218.5C 190.651,219.731 191.817,219.731 193,218.5C 198.012,224.855 204.512,229.022 212.5,231C 222.685,232.105 232.685,231.272 242.5,228.5 Z"/></g>
<g><path style="opacity:1" fill="#fefffe" d="M 246.5,171.5 C 247.496,171.414 248.329,171.748 249,172.5C 251.188,177.572 254.021,182.239 257.5,186.5C 241.485,187.941 225.485,189.108 209.5,190C 221.099,182.2 233.433,176.034 246.5,171.5 Z"/></g>
<g><path style="opacity:1" fill="#fefffe" d="M 239.5,190.5 C 245.842,190.334 252.175,190.5 258.5,191C 260.105,192.36 261.605,193.86 263,195.5C 263.888,200.618 263.555,205.618 262,210.5C 244.644,228.549 224.477,232.716 201.5,223C 193.358,215.685 191.358,206.851 195.5,196.5C 201.293,193.867 207.293,193.201 213.5,194.5C 212.139,196.028 210.972,197.695 210,199.5C 209.182,205.902 209.516,212.235 211,218.5C 212.555,221.055 214.722,222.888 217.5,224C 231.128,226.523 239.128,221.023 241.5,207.5C 241.226,200.387 237.893,195.22 231.5,192C 234.365,191.817 237.031,191.317 239.5,190.5 Z"/></g>
<g><path style="opacity:1" fill="#000000" d="M 77.5,211.5 C 78.5,211.5 79.5,211.5 80.5,211.5C 82.4381,219.939 87.4381,225.773 95.5,229C 116.541,237.929 134.374,233.762 149,216.5C 149.494,214.866 149.66,213.199 149.5,211.5C 150.5,211.5 151.5,211.5 152.5,211.5C 152.726,214.249 152.393,216.916 151.5,219.5C 142.914,229.913 131.914,235.58 118.5,236.5C 108.009,235.877 98.0093,233.377 88.5,229C 82.1381,224.816 78.4714,218.982 77.5,211.5 Z"/></g>
<g><path style="opacity:1" fill="#000000" d="M 76.5,225.5 C 77.8734,225.343 79.2068,225.51 80.5,226C 87.3101,231.328 94.9767,234.828 103.5,236.5C 103.5,237.5 103.5,238.5 103.5,239.5C 101.409,239.682 99.4086,239.348 97.5,238.5C 96.6143,239.325 96.281,240.325 96.5,241.5C 89.2966,242.373 82.7966,240.707 77,236.5C 76.5065,234.866 76.3398,233.199 76.5,231.5C 77.5,231.5 78.5,231.5 79.5,231.5C 79.4521,234.292 80.7854,236.125 83.5,237C 87.4065,238.434 91.4065,238.767 95.5,238C 89.057,235.613 83.057,232.446 77.5,228.5C 76.6143,227.675 76.281,226.675 76.5,225.5 Z"/></g>
<g><path style="opacity:1" fill="#fefffe" d="M 242.5,228.5 C 243.002,226.915 244.002,226.415 245.5,227C 244.756,228.039 243.756,228.539 242.5,228.5 Z"/></g>
<g><path style="opacity:1" fill="#000000" d="M 215.5,257.5 C 216.5,257.5 217.5,257.5 218.5,257.5C 221.825,271.046 217.492,281.213 205.5,288C 194.914,292.27 183.914,293.603 172.5,292C 166.095,290.198 159.761,288.198 153.5,286C 148.612,282.446 144.446,278.279 141,273.5C 140.503,270.854 140.336,268.187 140.5,265.5C 145.141,266.032 149.807,266.366 154.5,266.5C 164.631,265.297 174.797,264.297 185,263.5C 194.821,264.23 204.654,264.563 214.5,264.5C 214.5,265.5 214.5,266.5 214.5,267.5C 204.816,267.659 195.15,267.325 185.5,266.5C 171.587,268.613 157.587,269.946 143.5,270.5C 146.644,275.478 150.644,279.645 155.5,283C 166.923,288.523 178.923,290.523 191.5,289C 199.895,286.937 207.062,282.77 213,276.5C 216.499,270.51 217.332,264.176 215.5,257.5 Z"/></g>
</svg>
